#!OML:ASF F:\VICON\USERDATA\INSTALL\rory3\rory3.ASF
:FULLY-SPECIFIED
:DEGREES
46
root 0.6275912999455474 17.89066731107602 13.433067868621348 -3.283817297839634 -1.9627561081431186 -5.633735534819635
lfemur -12.790569126490148 0.06957630855795438 -13.843451919306842
ltibia 56.28962695174404
lfoot -8.400821078854149 -2.8387281983402843
ltoes -11.842238418102923
rfemur -6.687516123267449 4.536356362948249 30.649620998433964
rtibia 27.50532846000358
rfoot -9.638215380534367 -9.131795317993317
rtoes 6.049642213593895
lowerback 11.352555669454574 1.3812475057733193 3.7224610775243505
upperback 0.03881546676321798 2.5666247004415084 2.183569007847442
thorax -6.190818736819845 1.2450014944001622 -0.3008721064402917
lowerneck -16.53628142749643 -3.34895824468627 -1.6718772853477617
upperneck 21.77310015449181 -4.538419664720622 1.4611667844228462
head 9.861110858365251 -2.0850560925849777 0.19765513837788948
lclavicle -1.3551357802878383e-15 7.266333515397267e-16
lhumerus -23.50839881405173 -0.5555556594921831 80.19558482472613
lradius 31.889086641326088
lwrist 8.695178240822079
lhand -30.036520475167922 18.22444397195831
lfingers 7.125019999999999
lthumb -2.9749484533094512 49.23157107430885
rclavicle -1.3551357800564895e-15 7.266333516788363e-16
rhumerus -34.2208267514913 -20.021251064797994 -77.7324824989897
rradius 24.013663779975587
rwrist 4.192883279105393
rhand -17.590319314974217 22.335790350388613
rfingers 7.125019999999999
rthumb 8.523067826448875 -7.539132193647147
47
root 0.6411181698660926 17.897148690733978 13.813398708256694 -3.276783681613218 -1.5869021331520294 -5.866923502667932
lfemur -13.949898800806485 -0.012691327421541665 -13.824564939024174
ltibia 56.52502439274607
lfoot -8.512785349479756 -2.6672853432822317
ltoes -9.603003455284705
rfemur -5.462191197680346 4.493879588772801 30.813047983875233
rtibia 28.180334568037892
rfoot -9.678843630128274 -9.585121452843136
rtoes 5.843270136995908
lowerback 11.325232826722955 1.4375934786767548 3.9129526951826525
upperback 0.05690075885993323 2.668566912759377 2.1684331902489067
thorax -6.153734393756526 1.3045143012340499 -0.41241326581031745
lowerneck -16.530491081032384 -3.347155777902465 -1.6857721666971461
upperneck 21.766502727126642 -4.524618751311983 1.386471879907357
head 9.853500748488173 -2.084028748456985 0.17910510381543485
lclavicle -1.3551357802832864e-15 7.266333515422926e-16
lhumerus -23.704756028189685 -1.0427890480347926 80.3747094342222
lradius 31.555681103221158
lwrist 8.487665386321584
lhand -29.830978557740384 17.807991758900663
lfingers 7.125019999999999
lthumb -2.724938941159618 48.78659879684452
rclavicle -1.355135780050774e-15 7.266333516821182e-16
rhumerus -34.28615179710383 -20.524243574441027 -77.74902995998067
rradius 24.275554753673966
rwrist 5.01127662398784
rhand -17.61901516445149 22.281548165538407
rfingers 7.125019999999999
rthumb 8.592671362923088 -7.6724537241942325
48
root 0.6503121314884864 17.890536137360243 14.135863861551481 -3.5343392462322423 -1.3735808796549602 -5.563425440294494
lfemur -14.38260383452906 -0.11875880079931367 -14.29689710357384
ltibia 55.95515439929287
lfoot -8.430934941578208 -2.4242398232472473
ltoes -11.163158115185325
rfemur -4.480598457726478 4.462606850549183 30.516947170714726
rtibia 28.92689247814493
rfoot -9.519664967045419 -9.874747873862418
rtoes 5.762478942772464
lowerback 11.31152162871928 1.5024450137808638 3.6866404826812103
upperback 0.09829060667422945 2.6693943545763883 2.0858941668224373
thorax -6.093599133516438 1.3155802463544508 -0.44433873200980156
lowerneck -16.581060774308927 -3.347481694538983 -1.6894797505037928
upperneck 21.72764728787362 -4.514241393779179 1.345740988116516
head 9.845942462698943 -2.0818437079333547 0.16788550745623448
lclavicle -1.3551357802811801e-15 7.266333515433897e-16
lhumerus -24.060059640420942 -1.6114230623591728 80.57926522751923
lradius 30.98912925433171
lwrist 8.46448176497512
lhand -29.720808753711054 17.118356663198778
lfingers 7.125019999999999
lthumb -2.6077352129476363 47.960989569725605
rclavicle -1.355135780049187e-15 7.266333516828976e-16
rhumerus -34.41472086278665 -21.119537559044574 -77.50539405149647
rradius 24.491336098636985
rwrist 5.640123330396404
rhand -17.674614741089187 22.115858346704755
rfingers 7.125019999999999
rthumb 8.575162180549086 -7.8041198468733795
49
root 0.6531329292473796 17.870354786924022 14.51732848246169 -3.8553156388045107 -1.1696285653495637 -5.057281760098887
lfemur -14.291071838408087 -0.2873170719494693 -15.067960201222506
ltibia 54.49375597852173
lfoot -8.628188617341007 -2.5211713353897975
ltoes -13.127694037563877
rfemur -3.9679196535715526 4.279335473719769 29.92968174209635
rtibia 30.35763797407697
rfoot -9.222918805371858 -9.917966773408049
rtoes 6.825132702388201
lowerback 11.290472376506726 1.5884632124460905 3.3783370471593352
upperback 0.11985585133793511 2.688141245122503 1.9864687475222889
thorax -6.055967895902411 1.3353947196698321 -0.46734395393709827
lowerneck -16.588973230375387 -3.352824989821548 -1.6972397635499172
upperneck 21.630119942850072 -4.5256069070720235 1.3461909885346515
head 9.7994472386716 -2.088736826964988 0.17190788749134348
lclavicle -1.3551357802810752e-15 7.266333515433605e-16
lhumerus -24.317951655469393 -1.8615088418618027 80.9438148181382
lradius 30.265382926192842
lwrist 8.538002779123444
lhand -29.796330733941197 16.788227042596485
lfingers 7.125019999999999
lthumb -2.666390615645647 47.61719979384844
rclavicle -1.3551357800523e-15 7.266333516809658e-16
rhumerus -34.57206736991403 -21.687689185390685 -77.03848136712561
rradius 24.74703370299302
rwrist 6.045671695843577
rhand -17.71362099172505 22.0002363226186
rfingers 7.125019999999999
rthumb 8.629523295336234 -7.777612117703265
50
root 0.6527971595365764 17.853378448232725 15.323513712722114 -3.9303770153808335 -0.7717316453190368 -4.970260014594691
lfemur -14.802605912647444 -0.3995360005963928 -15.496239195280522
ltibia 52.94119446988937
lfoot -8.445060116982656 -2.7243794539645094
ltoes -16.519126122971254
rfemur -3.7147854084244205 3.9221350437953113 29.57687456116914
rtibia 31.913699638729504
rfoot -9.144543430243655 -9.88185485561127
rtoes 7.6248089577188045
lowerback 11.294841590087508 1.6287032721562094 3.401861546072265
upperback 0.1023614536403171 2.73747432817894 1.9516920915312057
thorax -6.055666146863478 1.3544885454156375 -0.5496655046554109
lowerneck -16.601618241908184 -3.3616218851843445 -1.679477787283964
upperneck 21.531025129209226 -4.52701934196949 1.3269505325325834
head 9.749184987977971 -2.093019753079996 0.16355092279174338
lclavicle -1.3551357802808636e-15 7.266333515434638e-16
lhumerus -24.7541701775198 -2.1943556755065328 81.30441917968628
lradius 29.417389463936605
lwrist 8.52415482641922
lhand -29.670792739087442 16.347152634855256
lfingers 7.125019999999999
lthumb -2.535219144289035 47.14066370032622
rclavicle -1.355135780056423e-15 7.266333516784484e-16
rhumerus -34.55923235665044 -22.130812643188943 -76.49915069006173
rradius 24.96198422086855
rwrist 6.595051455671139
rhand -17.751138851744482 21.861042413390777
rfingers 7.125019999999999
rthumb 8.657684431387613 -7.8166633746172485
51
root 0.6680793438436577 17.870337727992407 16.11515017380657 -3.436993918514986 -0.029806158435671304 -5.679175151250491
lfemur -15.557121294662778 -0.6004547400239155 -15.187871356314616
ltibia 51.59115885356789
lfoot -8.612604200003416 -3.3384983477235215
ltoes -14.239543508844225
rfemur -3.4662421483688473 3.3805780579728584 29.820653248456587
rtibia 32.50423411656807
rfoot -9.113562795686516 -9.812772682021725
rtoes 5.839140732966634
lowerback 11.249773936953993 1.5787929398031606 4.094529275265366
upperback 0.0116571937363429 2.7831123984744996 2.0108184569368297
thorax -6.08567700250773 1.3671569588133485 -0.7646813874638023
lowerneck -16.61011568098861 -3.3746953409828917 -1.6532013628005957
upperneck 21.475223143333036 -4.5332482465796655 1.2017121874913774
head 9.710650702712726 -2.102205988129467 0.10823986438838096
lclavicle -1.3551357802736617e-15 7.266333515475921e-16
lhumerus -25.119867314102883 -2.331630977780763 81.62863737911754
lradius 28.455711762700087
lwrist 8.728539333695712
lhand -29.0635358323912 17.328886557452197
lfingers 7.125019999999999
lthumb -1.8968466572811058 48.22956529045524
rclavicle -1.3551357800594463e-15 7.266333516764171e-16
rhumerus -34.44990436189682 -22.51738856531422 -76.20635591920612
rradius 25.084099300108445
rwrist 7.270206612861077
rhand -17.824883228842534 21.71031306333442
rfingers 7.125019999999999
rthumb 8.588065162959248 -8.005631961773407
52
root 0.680902853678491 17.881090077568143 16.57577231654046 -3.3069390872440523 0.26760006242106066 -5.901429229397918
lfemur -15.850612935901623 -0.70118578642802 -15.145272051942012
ltibia 50.39435286089092
lfoot -8.33208053615979 -3.949082696585151
ltoes -12.102685217071695
rfemur -3.3247012748225675 3.0050600709948423 29.714683704671295
rtibia 33.377358173404936
rfoot -9.340156094631443 -9.898332932405257
rtoes 5.78915540932354
lowerback 11.229232214540207 1.592767936278106 4.294652898358205
upperback -0.0035346299110191604 2.8342235728728613 2.0236376100177105
thorax -6.077724579451193 1.392671630132489 -0.8279660519034051
lowerneck -16.607941072382673 -3.3932693965688485 -1.645317048320957
upperneck 21.426201375290187 -4.560731383323402 1.127578511531962
head 9.659382301981784 -2.1183462434632365 0.07715284284909898
lclavicle -1.3551357802712212e-15 7.266333515488457e-16
lhumerus -25.471336464991115 -2.167589364598466 81.84860295946743
lradius 27.420286669614704
lwrist 8.927126682826888
lhand -28.95119585465527 17.204879692325317
lfingers 7.125019999999999
lthumb -1.8214037934611427 47.90986596387857
rclavicle -1.3551357800512355e-15 7.266333516812032e-16
rhumerus -34.181501697854806 -22.675047317460375 -76.04165004987726
rradius 25.047740181132166
rwrist 8.067920475231308
rhand -17.785538777100676 21.743857397630077
rfingers 7.125019999999999
rthumb 8.593993519547494 -7.910475116880192
53
root 0.697104181025031 17.891945720028 17.164825749817716 -3.266951626581432 0.3806571137949953 -6.00839159954372
lfemur -15.933331471424118 -0.7872514743167573 -15.25859529355485
ltibia 49.07600994423507
lfoot -8.409142479734973 -4.66963451282468
ltoes -8.485127246762397
rfemur -3.2540043637913154 2.838022047878781 29.618769418427764
rtibia 34.10151196833594
rfoot -9.131277579728929 -9.935963745603766
rtoes 4.743904329764167
lowerback 11.184458152304716 1.6203200650584915 4.423560698573796
upperback 0.007317077533886468 2.8876808767683326 2.013823906219194
thorax -6.071330214319911 1.3789930143829883 -0.9559075673124116
lowerneck -16.632740216376213 -3.415071550338791 -1.635579807829891
upperneck 21.442835066720136 -4.603790286083394 1.0311476489084588
head 9.663213911986492 -2.1364415254101226 0.030943060482415574
lclavicle -1.3551357802648103e-15 7.266333515524214e-16
lhumerus -26.057861830720807 -1.7604063616500745 81.91664119657332
lradius 26.188908359253475
lwrist 9.238459119004222
lhand -28.700937925356623 17.199288681442717
lfingers 7.125019999999999
lthumb -1.6083959374259822 47.82680201283908
rclavicle -1.355135780046513e-15 7.266333516837571e-16
rhumerus -33.9342726746603 -22.591275997736954 -75.57023891242648
rradius 24.86214247060118
rwrist 8.241167687459694
rhand -17.735466336543286 21.820158325902884
rfingers 7.125019999999999
rthumb 8.589581304774613 -7.81512689556374
